# Blender 4.2.0
# www.blender.org
mtllib bigWoodBox.mtl
o Cube:114_Cube:126
v -2.823924 0.073246 1.246112
v -2.823924 2.187780 1.246112
v -2.823924 2.187780 -1.232414
v -2.823924 0.073246 -1.232414
v 2.782668 0.073246 -1.232414
v 2.782668 2.187780 -1.232414
v 2.782668 2.187780 1.246112
v 2.782668 0.073246 1.246112
v -0.974820 0.011756 -1.304490
v -0.886120 0.011756 -1.263000
v -0.886120 0.011754 1.276696
v -0.974820 0.011754 1.318186
v -2.617044 0.011754 1.318186
v -2.617044 0.011756 -1.304490
v -2.617044 2.304330 1.382726
v -2.870502 2.304330 1.382726
v -2.870502 0.011754 1.409460
v -2.617044 0.011754 1.409460
v 2.575762 0.011756 -1.304490
v 2.575762 2.249270 -1.304490
v 2.575762 2.304332 -1.369028
v 2.575762 0.011756 -1.395764
v 2.575762 2.249270 1.318186
v 2.575762 0.011754 1.318186
v 2.575762 0.011754 1.409460
v 2.575762 2.304330 1.382726
v -2.870502 0.011756 -1.304490
v -2.870502 0.011756 -1.395764
v -2.617044 0.011756 -1.395764
v -2.617044 2.249270 1.318186
v -2.617044 2.249270 -1.304490
v -2.617044 2.304332 -1.369028
v 2.829220 0.011756 -1.395764
v 2.829220 0.011756 -1.304490
v -0.797422 2.249270 -1.304490
v -0.886120 2.249270 -1.263000
v -0.886120 2.249270 1.276696
v -0.797422 2.249270 1.318186
v 0.756128 2.249270 1.318186
v 0.844840 2.249270 1.276696
v 0.844840 2.249270 -1.263000
v 0.756128 2.249270 -1.304490
v 0.756128 0.011756 -1.304490
v 0.844840 0.011756 -1.263000
v 0.844840 0.011754 1.276696
v 0.756128 0.011754 1.318186
v -0.797422 0.011754 1.318186
v -0.797422 0.011756 -1.304490
v -0.974820 2.249270 1.318186
v 0.933538 0.011756 -1.304490
v 0.933538 2.249270 -1.304490
v 2.829220 0.073246 -1.232414
v 2.829220 2.187780 -1.232414
v -0.974820 2.249270 -1.304490
v 0.933538 2.249270 1.318186
v 0.933538 0.011754 1.318186
v 2.829220 0.011754 1.409460
v 2.829220 2.304330 1.382726
v 2.829220 0.011754 1.318186
v -2.870502 2.304332 -1.369028
v 2.829220 2.304332 -1.369028
v -2.870502 0.011754 1.318186
v -2.870502 0.073246 1.246112
v -2.870502 2.187780 1.246112
v -0.797422 2.249270 1.389120
v -0.797422 0.011754 1.389120
v 0.756128 0.011754 1.389120
v 0.756128 2.249270 1.389120
v 0.933538 2.249270 -1.375422
v 0.756128 2.249270 -1.375422
v 0.933538 2.249270 1.389120
v 0.933538 0.011754 1.389120
v -0.974820 2.249270 1.389120
v -0.974820 0.011754 1.389120
v -0.974820 0.011756 -1.375422
v -0.974820 2.249270 -1.375422
v -0.797422 2.249270 -1.375422
v -0.797422 0.011756 -1.375422
v 0.756128 0.011756 -1.375422
v 0.933538 0.011756 -1.375422
v 2.829220 0.073246 1.246112
v 2.829220 2.187780 1.246112
v -2.870502 2.187780 -1.232414
v -2.870502 0.073246 -1.232414
vn -1.0000 -0.0000 -0.0000
vn 1.0000 -0.0000 -0.0000
vn -0.0000 -1.0000 -0.0000
vn -0.0000 0.0117 0.9999
vn -0.0000 1.0000 -0.0000
vn -0.0000 -0.0000 1.0000
vn -0.0000 -0.0000 -1.0000
vn -0.0000 0.0117 -0.9999
vt 0.220853 0.797070
vt 0.001953 0.797070
vt 0.001953 0.540490
vt 0.220853 0.540490
vt 0.442780 0.797070
vt 0.223880 0.797070
vt 0.223880 0.540490
vt 0.442780 0.540490
vt 0.001953 0.369515
vt 0.006248 0.360332
vt 0.269161 0.360332
vt 0.273456 0.369515
vt 0.273456 0.539523
vt 0.001953 0.539523
vt 0.940556 0.942810
vt 0.914320 0.942810
vt 0.914320 0.705463
vt 0.940556 0.705463
vt 0.756090 0.308597
vt 0.753389 0.540213
vt 0.746642 0.545834
vt 0.746642 0.308487
vt 0.759206 0.540213
vt 0.756505 0.308597
vt 0.765954 0.308487
vt 0.765954 0.545834
vt 0.822195 0.476598
vt 0.795959 0.476598
vt 0.795959 0.467149
vt 0.822195 0.467149
vt 0.993996 0.008634
vt 0.993996 0.280138
vt 0.988296 0.286819
vt 0.988296 0.001953
vt 0.825549 0.467149
vt 0.851785 0.467149
vt 0.851785 0.476598
vt 0.825549 0.476598
vt 0.549632 0.351151
vt 0.545337 0.360332
vt 0.282424 0.360332
vt 0.278129 0.351151
vt 0.278129 0.190324
vt 0.282424 0.181143
vt 0.545337 0.181143
vt 0.549632 0.190324
vt 0.001953 0.190324
vt 0.006248 0.181143
vt 0.269161 0.181143
vt 0.273456 0.190324
vt 0.273456 0.351151
vt 0.001953 0.351151
vt 0.564169 0.540119
vt 0.564169 0.308488
vt 0.734177 0.308488
vt 0.734177 0.540119
vt 0.623349 0.812804
vt 0.623349 0.581173
vt 0.793357 0.581173
vt 0.793357 0.812804
vt 0.805822 0.977417
vt 0.805822 0.758517
vt 0.810642 0.758517
vt 0.810642 0.977417
vt 0.445807 0.813609
vt 0.445807 0.581978
vt 0.615815 0.581978
vt 0.615815 0.813609
vt 0.549632 0.539523
vt 0.278129 0.539523
vt 0.278129 0.369515
vt 0.549632 0.369515
vt 0.549632 0.171961
vt 0.278129 0.171961
vt 0.278129 0.001953
vt 0.549632 0.001953
vt 0.001953 0.001953
vt 0.273456 0.001953
vt 0.273456 0.171961
vt 0.001953 0.171961
vt 0.956786 0.234551
vt 0.956786 0.466182
vt 0.795959 0.466182
vt 0.795959 0.234551
vt 0.739108 0.019830
vt 0.739108 0.251461
vt 0.569100 0.251461
vt 0.569100 0.019830
vt 0.914320 0.467149
vt 0.940556 0.467149
vt 0.940556 0.704496
vt 0.914320 0.704496
vt 0.825549 0.748101
vt 0.851785 0.748101
vt 0.851785 0.757550
vt 0.825549 0.757550
vt 0.881375 0.990329
vt 0.855140 0.990329
vt 0.855140 0.752982
vt 0.881375 0.752982
vt 0.910966 0.752015
vt 0.884730 0.752015
vt 0.884730 0.467149
vt 0.910966 0.467149
vt 0.855140 0.467149
vt 0.881375 0.467149
vt 0.881375 0.752015
vt 0.855140 0.752015
vt 0.822195 0.757550
vt 0.795959 0.757550
vt 0.795959 0.748101
vt 0.822195 0.748101
vt 0.983364 0.755819
vt 0.983364 0.484316
vt 0.989064 0.477634
vt 0.989064 0.762500
vt 0.739480 0.540213
vt 0.736778 0.308597
vt 0.746227 0.308487
vt 0.746227 0.545834
vt 0.899525 0.971882
vt 0.899525 0.752982
vt 0.904344 0.752982
vt 0.904344 0.971882
vt 0.958706 0.001953
vt 0.984941 0.001953
vt 0.984941 0.239300
vt 0.958706 0.239300
vt 0.978432 0.477481
vt 0.981134 0.245866
vt 0.987881 0.240244
vt 0.987881 0.477591
vt 0.795959 0.990148
vt 0.795959 0.758517
vt 0.803302 0.758517
vt 0.803302 0.990148
vt 0.963637 0.704496
vt 0.963637 0.472865
vt 0.970981 0.472865
vt 0.970981 0.704496
vt 0.576443 0.252428
vt 0.576443 0.270792
vt 0.569100 0.270792
vt 0.569100 0.252428
vt 0.973501 0.710136
vt 0.973501 0.478505
vt 0.980844 0.478505
vt 0.980844 0.710136
vt 0.956786 0.001953
vt 0.956786 0.233584
vt 0.795959 0.233584
vt 0.795959 0.001953
vt 0.779800 0.019830
vt 0.779800 0.251461
vt 0.761437 0.251461
vt 0.761437 0.019830
vt 0.943910 0.704496
vt 0.943910 0.472865
vt 0.962274 0.472865
vt 0.962274 0.704496
vt 0.741710 0.251461
vt 0.741710 0.019830
vt 0.760074 0.019830
vt 0.760074 0.251461
vt 0.958706 0.471898
vt 0.958706 0.240267
vt 0.977069 0.240267
vt 0.977069 0.471898
vt 0.625760 0.252428
vt 0.625760 0.270792
vt 0.618417 0.270792
vt 0.618417 0.252428
vt 0.578964 0.270792
vt 0.578964 0.252428
vt 0.586307 0.252428
vt 0.586307 0.270792
vt 0.951254 0.705463
vt 0.951254 0.937094
vt 0.943910 0.937094
vt 0.943910 0.705463
vt 0.588827 0.270792
vt 0.588827 0.252428
vt 0.596170 0.252428
vt 0.596170 0.270792
vt 0.961117 0.705463
vt 0.961117 0.937094
vt 0.953774 0.937094
vt 0.953774 0.705463
vt 0.970981 0.705463
vt 0.970981 0.937094
vt 0.963637 0.937094
vt 0.963637 0.705463
vt 0.635624 0.252428
vt 0.635624 0.270792
vt 0.628281 0.270792
vt 0.628281 0.252428
vt 0.638144 0.270792
vt 0.638144 0.252428
vt 0.645487 0.252428
vt 0.645487 0.270792
vt 0.773712 0.308488
vt 0.773712 0.540119
vt 0.766369 0.540119
vt 0.766369 0.308488
vt 0.598691 0.270792
vt 0.598691 0.252428
vt 0.606034 0.252428
vt 0.606034 0.270792
vt 0.608554 0.270792
vt 0.608554 0.252428
vt 0.615897 0.252428
vt 0.615897 0.270792
vt 0.892073 0.752982
vt 0.892073 0.984613
vt 0.884730 0.984613
vt 0.884730 0.752982
vt 0.554305 0.571562
vt 0.560671 0.564101
vt 0.779571 0.564101
vt 0.791636 0.578244
vt 0.554305 0.581011
vt 0.779571 0.307521
vt 0.791636 0.293378
vt 0.554305 0.004721
vt 0.566371 0.018863
vt 0.566371 0.275444
vt 0.554305 0.289586
vt 0.785270 0.275444
vt 0.791636 0.282905
vt 0.791636 0.292354
vt 0.791636 0.011402
vt 0.785270 0.018863
vt 0.791636 0.001953
vt 0.554305 0.300059
vt 0.560671 0.307521
vt 0.554305 0.290610
vt 0.978320 0.711103
vt 0.978320 0.967684
vt 0.973501 0.967684
vt 0.973501 0.711103
vt 0.993228 0.538563
vt 0.993228 0.281982
vt 0.998047 0.281982
vt 0.998047 0.538563
vt 0.998047 0.539530
vt 0.998047 0.796111
vt 0.993228 0.796111
vt 0.993228 0.539530
vt 0.978432 0.967684
vt 0.978432 0.711103
vt 0.983252 0.711103
vt 0.983252 0.967684
vt 0.899413 0.752982
vt 0.899413 0.971882
vt 0.894593 0.971882
vt 0.894593 0.752982
vt 0.815574 0.758517
vt 0.815574 0.977417
vt 0.810754 0.977417
vt 0.810754 0.758517
s 1
usemtl None.003
f 1/1/1 2/2/1 3/3/1 4/4/1
f 5/5/2 6/6/2 7/7/2 8/8/2
f 9/9/3 10/10/3 11/11/3 12/12/3 13/13/3 14/14/3
f 15/15/4 16/16/4 17/17/4 18/18/4
f 19/19/1 20/20/1 21/21/1 22/22/1
f 23/23/1 24/24/1 25/25/1 26/26/1
f 14/27/3 27/28/3 28/29/3 29/30/3
f 30/31/2 31/32/2 32/33/2 15/34/2
f 22/35/3 33/36/3 34/37/3 19/38/3
f 35/39/5 36/40/5 37/41/5 38/42/5 39/43/5 40/44/5 41/45/5 42/46/5
f 43/47/3 44/48/3 45/49/3 46/50/3 47/51/3 11/11/3 10/10/3 48/52/3
f 30/53/6 13/54/6 12/55/6 49/56/6
f 20/57/7 19/58/7 50/59/7 51/60/7
f 6/61/6 5/62/6 52/63/6 53/64/6
f 54/65/7 9/66/7 14/67/7 31/68/7
f 31/69/5 30/70/5 49/71/5 37/41/5 36/40/5 54/72/5
f 51/73/5 41/45/5 40/44/5 55/74/5 23/75/5 20/76/5
f 19/77/3 24/78/3 56/79/3 45/49/3 44/48/3 50/80/3
f 42/81/7 43/82/7 48/83/7 35/84/7
f 55/85/6 56/86/6 24/87/6 23/88/6
f 25/89/4 57/90/4 58/91/4 26/92/4
f 24/93/3 59/94/3 57/95/3 25/96/3
f 29/97/8 28/98/8 60/99/8 32/100/8
f 26/101/5 58/102/5 61/103/5 21/104/5
f 32/105/5 60/106/5 16/107/5 15/108/5
f 18/109/3 17/110/3 62/111/3 13/112/3
f 20/113/1 23/114/1 26/115/1 21/116/1
f 31/117/2 14/118/2 29/119/2 32/120/2
f 2/121/7 1/122/7 63/123/7 64/124/7
f 19/38/3 34/37/3 59/94/3 24/93/3
f 21/125/8 61/126/8 33/127/8 22/128/8
f 13/129/2 30/130/2 15/131/2 18/132/2
f 39/43/5 55/74/5 40/44/5
f 49/71/5 38/42/5 37/41/5
f 35/39/5 54/72/5 36/40/5
f 51/73/5 42/46/5 41/45/5
f 9/9/3 48/52/3 10/10/3
f 43/47/3 50/80/3 44/48/3
f 56/79/3 46/50/3 45/49/3
f 47/51/3 12/12/3 11/11/3
f 47/133/2 38/134/2 65/135/2 66/136/2
f 39/137/1 46/138/1 67/139/1 68/140/1
f 42/141/5 51/142/5 69/143/5 70/144/5
f 56/145/2 55/146/2 71/147/2 72/148/2
f 38/149/6 47/150/6 46/151/6 39/152/6
f 72/153/6 71/154/6 68/155/6 67/156/6
f 66/157/6 65/158/6 73/159/6 74/160/6
f 75/161/7 76/162/7 77/163/7 78/164/7
f 79/165/7 70/166/7 69/167/7 80/168/7
f 38/169/5 49/170/5 73/171/5 65/172/5
f 46/173/3 56/174/3 72/175/3 67/176/3
f 49/177/1 12/178/1 74/179/1 73/180/1
f 48/181/3 9/182/3 75/183/3 78/184/3
f 9/185/1 54/186/1 76/187/1 75/188/1
f 35/189/2 48/190/2 78/191/2 77/192/2
f 54/193/5 35/194/5 77/195/5 76/196/5
f 12/197/3 47/198/3 66/199/3 74/200/3
f 43/201/1 42/202/1 70/203/1 79/204/1
f 55/205/5 39/206/5 68/207/5 71/208/5
f 50/209/3 43/210/3 79/211/3 80/212/3
f 51/213/2 50/214/2 80/215/2 69/216/2
f 59/217/2 81/218/2 82/219/2 58/220/2 57/221/2
f 58/220/2 82/219/2 53/222/2 61/223/2
f 60/224/1 83/225/1 64/226/1 16/227/1
f 16/227/1 64/226/1 63/228/1 62/229/1 17/230/1
f 27/231/1 84/232/1 83/225/1 60/224/1 28/233/1
f 27/231/1 62/229/1 63/228/1 84/232/1
f 59/217/2 34/234/2 52/235/2 81/218/2
f 61/223/2 53/222/2 52/235/2 34/234/2 33/236/2
f 1/237/5 4/238/5 84/239/5 63/240/5
f 5/241/5 8/242/5 81/243/5 52/244/5
f 3/245/3 2/246/3 64/247/3 83/248/3
f 7/249/3 6/250/3 53/251/3 82/252/3
f 4/253/6 3/254/6 83/255/6 84/256/6
f 8/257/7 7/258/7 82/259/7 81/260/7
f 13/112/3 62/111/3 27/28/3 14/27/3
