# Blender 4.2.0
# www.blender.org
mtllib woodBox.mtl
o Cube:112_Cube:123
v -0.317355 0.623328 -0.332249
v 0.311454 0.017352 -0.332249
v 0.311454 0.065388 -0.332249
v -0.317355 0.680565 -0.332249
v -0.317355 0.623328 -0.341166
v -0.317355 0.680565 -0.341166
v 0.311454 0.065388 -0.341166
v 0.311454 0.017352 -0.341166
v 0.311454 0.623328 0.353491
v -0.317355 0.017352 0.353490
v -0.317355 0.065388 0.353490
v 0.311454 0.680565 0.353491
v 0.311454 0.623328 0.362409
v 0.311454 0.680565 0.362409
v -0.317355 0.065388 0.362407
v -0.317355 0.017352 0.362407
v -0.345817 0.016461 0.303082
v -0.345817 0.645272 -0.302895
v -0.345817 0.645272 -0.254857
v -0.345817 0.016461 0.360319
v -0.354739 0.016461 0.303082
v -0.354739 0.016461 0.360319
v -0.354739 0.645272 -0.254857
v -0.354739 0.645272 -0.302895
v 0.339916 0.645272 0.303082
v 0.339916 0.016462 -0.302895
v 0.339916 0.016462 -0.254858
v 0.339916 0.645272 0.360319
v 0.348838 0.645272 0.303082
v 0.348838 0.645272 0.360319
v 0.348838 0.016462 -0.254858
v 0.348838 0.016462 -0.302895
v -0.350416 0.040415 0.325027
v -0.350416 0.669226 0.325027
v -0.350416 0.669226 -0.303784
v -0.350416 0.040415 -0.303784
v -0.317355 0.040415 -0.336848
v -0.317355 0.669226 -0.336848
v 0.311454 0.669226 -0.336848
v 0.311454 0.040415 -0.336848
v 0.344516 0.040415 -0.303784
v 0.344516 0.669226 -0.303784
v 0.344516 0.669226 0.325027
v 0.344516 0.040415 0.325027
v 0.311454 0.040415 0.358091
v 0.311454 0.669226 0.358091
v -0.317355 0.040415 0.358091
v -0.317355 0.007351 -0.303784
v 0.311454 0.007351 -0.303784
v 0.311454 0.007351 0.325027
v -0.317355 0.007351 0.325027
v 0.311454 0.702290 -0.303784
v -0.317355 0.702290 -0.303784
v -0.317355 0.702290 0.325027
v 0.311454 0.702290 0.325027
v 0.353773 0.040415 -0.303784
v 0.353773 0.669226 -0.303784
v -0.359674 0.040415 -0.303784
v -0.359674 0.040415 0.325027
v -0.317355 0.040415 -0.346096
v -0.317355 0.669226 -0.346096
v -0.359674 0.669226 0.325027
v -0.317355 0.711537 0.325027
v 0.311454 0.711537 0.325027
v 0.311454 -0.001897 0.325027
v -0.317355 -0.001897 0.325027
v -0.317355 0.711537 -0.303784
v -0.317355 0.669226 0.358091
v -0.317355 0.669226 0.367614
v -0.317355 0.040415 0.367614
v 0.311454 -0.001897 -0.303784
v 0.353773 0.669226 0.325027
v 0.353773 0.040415 0.325027
v 0.311454 0.711537 -0.303784
v 0.311454 0.669226 0.367614
v 0.311454 0.669226 -0.346096
v 0.311454 0.040415 -0.346096
v -0.317355 -0.001897 -0.303784
v -0.359674 0.669226 -0.303784
v -0.312057 0.040415 0.367614
v 0.311454 0.040415 0.367614
v -0.359674 -0.001897 0.367614
v -0.359674 0.711538 0.367614
v -0.359674 0.711539 -0.346096
v -0.359674 -0.001897 -0.346096
v 0.353773 0.711539 -0.346096
v 0.353773 -0.001897 -0.346096
v 0.353773 0.711538 0.367614
v 0.353773 -0.001897 0.367614
vn -0.0000 -0.0000 1.0000
vn -0.0000 -0.0000 -1.0000
vn 0.6993 0.7148 -0.0000
vn -0.6939 -0.7201 -0.0000
vn -1.0000 -0.0000 -0.0000
vn 1.0000 -0.0000 -0.0000
vn -0.6993 0.7148 -0.0000
vn 0.6939 -0.7201 -0.0000
vn -0.0000 0.6993 0.7148
vn -0.0000 -0.6939 -0.7201
vn -0.0000 -1.0000 -0.0000
vn -0.0000 1.0000 -0.0000
vn -0.0000 -0.6993 0.7148
vn -0.0000 0.6939 -0.7201
vt 0.645495 0.875595
vt 0.650618 0.195375
vt 0.677365 0.221542
vt 0.677365 0.906774
vt 0.872016 0.682173
vt 0.840146 0.713352
vt 0.840146 0.028120
vt 0.866893 0.001953
vt 0.959321 0.001953
vt 0.966267 0.001953
vt 0.966267 0.687185
vt 0.959321 0.687185
vt 0.991101 0.001953
vt 0.998047 0.001953
vt 0.998047 0.682193
vt 0.991101 0.682193
vt 0.121128 0.018391
vt 0.128074 0.018391
vt 0.128074 0.062976
vt 0.121128 0.062976
vt 0.152907 0.018266
vt 0.159854 0.018266
vt 0.159854 0.055683
vt 0.152907 0.055683
vt 0.907679 0.682171
vt 0.912802 0.001953
vt 0.939548 0.028120
vt 0.939548 0.713350
vt 0.820374 0.875596
vt 0.788504 0.906775
vt 0.788504 0.221545
vt 0.815251 0.195379
vt 0.958322 0.687183
vt 0.951376 0.687183
vt 0.951376 0.001953
vt 0.958323 0.001953
vt 0.990103 0.682190
vt 0.983156 0.682190
vt 0.983156 0.001953
vt 0.990102 0.001953
vt 0.097293 0.018485
vt 0.104240 0.018485
vt 0.104240 0.063070
vt 0.097293 0.063070
vt 0.144962 0.018297
vt 0.151909 0.018297
vt 0.151909 0.055715
vt 0.144962 0.055715
vt 0.784622 0.226552
vt 0.779499 0.906771
vt 0.752752 0.880604
vt 0.752752 0.195373
vt 0.871926 0.033132
vt 0.903796 0.001953
vt 0.903796 0.687184
vt 0.877049 0.713351
vt 0.943431 0.001953
vt 0.950378 0.001953
vt 0.950378 0.687184
vt 0.943431 0.687184
vt 0.967266 0.001953
vt 0.974213 0.001953
vt 0.974213 0.682192
vt 0.967266 0.682192
vt 0.113183 0.018422
vt 0.120130 0.018422
vt 0.120130 0.063007
vt 0.113183 0.063007
vt 0.137018 0.018328
vt 0.143964 0.018328
vt 0.143964 0.055747
vt 0.137018 0.055747
vt 0.713117 0.226552
vt 0.707995 0.906771
vt 0.681247 0.880604
vt 0.681247 0.195373
vt 0.717000 0.226555
vt 0.748869 0.195376
vt 0.748869 0.880607
vt 0.722122 0.906774
vt 0.824257 0.195388
vt 0.831204 0.195388
vt 0.831204 0.880619
vt 0.824257 0.880619
vt 0.975211 0.001953
vt 0.982158 0.001953
vt 0.982158 0.682192
vt 0.975211 0.682192
vt 0.105238 0.018454
vt 0.112185 0.018454
vt 0.112185 0.063038
vt 0.105238 0.063038
vt 0.129073 0.018360
vt 0.136019 0.018360
vt 0.136019 0.055778
vt 0.129073 0.055778
vt 0.643500 0.388044
vt 0.450843 0.388044
vt 0.450843 0.195388
vt 0.643500 0.195388
vt 0.838151 0.001953
vt 0.838151 0.194609
vt 0.645495 0.194609
vt 0.645495 0.001953
vt 0.643500 0.194609
vt 0.450843 0.194609
vt 0.450843 0.001953
vt 0.643500 0.001953
vt 0.643499 0.388823
vt 0.643499 0.581480
vt 0.450843 0.388823
vt 0.417068 0.852950
vt 0.224412 0.852950
vt 0.224412 0.660294
vt 0.417068 0.660294
vt 0.643499 0.774915
vt 0.450843 0.774915
vt 0.450843 0.582259
vt 0.643499 0.582259
vt 0.037705 0.181162
vt 0.037705 0.018720
vt 0.040095 0.018720
vt 0.040095 0.181162
vt 0.057568 0.181084
vt 0.057568 0.018642
vt 0.059957 0.018642
vt 0.059957 0.181084
vt 0.069485 0.181037
vt 0.069485 0.018595
vt 0.071874 0.018595
vt 0.071874 0.181037
vt 0.049623 0.181115
vt 0.049623 0.018673
vt 0.052012 0.018673
vt 0.052012 0.181115
vt 0.083792 0.018548
vt 0.083792 0.180990
vt 0.081403 0.180990
vt 0.081403 0.018548
vt 0.017412 0.018021
vt 0.017455 0.212377
vt 0.015563 0.214317
vt 0.015462 0.016136
vt 0.067902 0.018610
vt 0.067902 0.181053
vt 0.065513 0.181053
vt 0.065513 0.018610
vt 0.021816 0.181225
vt 0.021816 0.018782
vt 0.024276 0.018782
vt 0.024276 0.181225
vt 0.212016 0.212174
vt 0.213959 0.214064
vt 0.033733 0.181178
vt 0.033733 0.018736
vt 0.036122 0.018736
vt 0.036122 0.181178
vt 0.075847 0.018579
vt 0.075847 0.181021
vt 0.073458 0.181021
vt 0.073458 0.018579
vt 0.025788 0.181209
vt 0.025788 0.018767
vt 0.028248 0.018767
vt 0.028248 0.181209
vt 0.077430 0.181006
vt 0.077430 0.018563
vt 0.079819 0.018563
vt 0.079819 0.181006
vt 0.212132 0.017254
vt 0.214014 0.015308
vt 0.045650 0.181131
vt 0.045650 0.018689
vt 0.048040 0.018689
vt 0.048040 0.181131
vt 0.053595 0.181100
vt 0.053595 0.018657
vt 0.055985 0.018657
vt 0.055985 0.181100
vt 0.087764 0.018532
vt 0.087764 0.180974
vt 0.085375 0.180974
vt 0.085375 0.018532
vt 0.029760 0.181185
vt 0.029760 0.018743
vt 0.032221 0.020112
vt 0.032221 0.181185
vt 0.089348 0.180958
vt 0.089348 0.018516
vt 0.091737 0.018516
vt 0.091737 0.180958
vt 0.061540 0.181068
vt 0.061540 0.018626
vt 0.063930 0.018626
vt 0.063930 0.181068
vt 0.041678 0.181147
vt 0.041678 0.018704
vt 0.044067 0.018704
vt 0.044067 0.181147
vt 0.017843 0.181241
vt 0.017843 0.018798
vt 0.020303 0.018798
vt 0.020303 0.181241
vt 0.095709 0.018501
vt 0.095709 0.180943
vt 0.093320 0.180943
vt 0.093320 0.018501
vt 0.446968 0.659515
vt 0.228384 0.659515
vt 0.241348 0.646467
vt 0.434004 0.646467
vt 0.228384 0.440847
vt 0.241348 0.453811
vt 0.446968 0.440847
vt 0.434004 0.453811
vt 0.220537 0.670199
vt 0.001953 0.670199
vt 0.014917 0.657235
vt 0.207573 0.657235
vt 0.001953 0.451614
vt 0.014917 0.464579
vt 0.220537 0.451614
vt 0.207573 0.464579
vt 0.446968 0.440068
vt 0.228384 0.440068
vt 0.241348 0.427104
vt 0.434004 0.427104
vt 0.228384 0.221400
vt 0.241348 0.234448
vt 0.446968 0.221400
vt 0.434004 0.234448
vt 0.225546 0.228223
vt 0.225546 0.450858
vt 0.212680 0.437687
vt 0.212683 0.241459
vt 0.005926 0.446470
vt 0.019321 0.433990
vt 0.010287 0.231340
vt 0.023318 0.244291
vt 0.025281 0.244197
vt 0.227347 0.001953
vt 0.227347 0.227441
vt 0.002102 0.227715
vt 0.001953 0.002740
vt 0.446969 0.220621
vt 0.228384 0.220621
vt 0.241349 0.207657
vt 0.434005 0.207657
vt 0.228384 0.001953
vt 0.241349 0.015001
vt 0.446969 0.001953
vt 0.434005 0.015001
vt 0.023917 0.247148
vt 0.450843 0.581480
s 1
usemtl None.002
f 1/1/1 2/2/1 3/3/1 4/4/1
f 5/5/2 6/6/2 7/7/2 8/8/2
f 3/9/3 7/10/3 6/11/3 4/12/3
f 1/13/4 5/14/4 8/15/4 2/16/4
f 4/17/5 6/18/5 5/19/5 1/20/5
f 2/21/6 8/22/6 7/23/6 3/24/6
f 9/25/2 10/26/2 11/27/2 12/28/2
f 13/29/1 14/30/1 15/31/1 16/32/1
f 11/33/7 15/34/7 14/35/7 12/36/7
f 9/37/8 13/38/8 16/39/8 10/40/8
f 12/41/6 14/42/6 13/43/6 9/44/6
f 10/45/5 16/46/5 15/47/5 11/48/5
f 17/49/6 18/50/6 19/51/6 20/52/6
f 21/53/5 22/54/5 23/55/5 24/56/5
f 19/57/9 23/58/9 22/59/9 20/60/9
f 17/61/10 21/62/10 24/63/10 18/64/10
f 20/65/11 22/66/11 21/67/11 17/68/11
f 18/69/12 24/70/12 23/71/12 19/72/12
f 25/73/5 26/74/5 27/75/5 28/76/5
f 29/77/6 30/78/6 31/79/6 32/80/6
f 27/81/13 31/82/13 30/83/13 28/84/13
f 25/85/14 29/86/14 32/87/14 26/88/14
f 28/89/12 30/90/12 29/91/12 25/92/12
f 26/93/11 32/94/11 31/95/11 27/96/11
f 33/97/5 34/98/5 35/99/5 36/100/5
f 37/101/2 38/102/2 39/103/2 40/104/2
f 41/105/6 42/106/6 43/107/6 44/108/6
f 45/109/1 46/110/1 47/111/1
f 48/112/11 49/113/11 50/114/11 51/115/11
f 52/116/12 53/117/12 54/118/12 55/119/12
f 42/120/1 41/121/1 56/122/1 57/123/1
f 33/124/12 36/125/12 58/126/12 59/127/12
f 38/128/6 37/129/6 60/130/6 61/131/6
f 34/132/2 33/133/2 59/134/2 62/135/2
f 55/136/2 54/137/2 63/138/2 64/139/2
f 51/140/2 50/141/2 65/142/2 66/143/2
f 54/144/6 53/145/6 67/146/6 63/147/6
f 47/148/6 68/149/6 69/150/6 70/151/6
f 50/141/5 49/152/5 71/153/5 65/142/5
f 44/154/2 43/155/2 72/156/2 73/157/2
f 52/158/5 55/159/5 64/160/5 74/161/5
f 68/162/11 46/163/11 75/164/11 69/165/11
f 40/166/5 39/167/5 76/168/5 77/169/5
f 48/170/6 51/140/6 66/143/6 78/171/6
f 43/172/11 42/173/11 57/174/11 72/175/11
f 36/176/1 35/177/1 79/178/1 58/179/1
f 53/180/1 52/181/1 74/182/1 67/183/1
f 45/184/12 47/185/12 80/186/12 81/187/12
f 39/188/11 38/189/11 61/190/11 76/191/11
f 49/152/1 48/170/1 78/171/1 71/153/1
f 41/192/12 44/193/12 73/194/12 56/195/12
f 35/196/11 34/197/11 62/198/11 79/199/11
f 46/200/5 45/201/5 81/202/5 75/203/5
f 37/204/12 40/205/12 77/206/12 60/207/12
f 82/208/5 83/209/5 62/210/5 59/211/5
f 83/209/5 84/212/5 79/213/5 62/210/5
f 84/212/5 85/214/5 58/215/5 79/213/5
f 85/214/5 82/208/5 59/211/5 58/215/5
f 85/216/2 84/217/2 61/218/2 60/219/2
f 84/217/2 86/220/2 76/221/2 61/218/2
f 86/220/2 87/222/2 77/223/2 76/221/2
f 87/222/2 85/216/2 60/219/2 77/223/2
f 87/224/6 86/225/6 57/226/6 56/227/6
f 86/225/6 88/228/6 72/229/6 57/226/6
f 88/228/6 89/230/6 73/231/6 72/229/6
f 89/230/6 87/224/6 56/227/6 73/231/6
f 89/232/1 88/233/1 75/234/1 81/235/1
f 88/233/1 83/236/1 69/237/1 75/234/1
f 83/236/1 82/238/1 70/239/1 69/237/1
f 82/238/1 89/232/1 81/235/1 80/240/1 70/239/1
f 85/241/11 87/242/11 71/153/11 78/171/11
f 87/242/11 89/243/11 65/142/11 71/153/11
f 89/243/11 82/244/11 66/143/11 65/142/11
f 82/244/11 85/241/11 78/171/11 66/143/11
f 86/245/12 84/246/12 67/247/12 74/248/12
f 84/246/12 83/249/12 63/250/12 67/247/12
f 83/249/12 88/251/12 64/252/12 63/250/12
f 88/251/12 86/245/12 74/248/12 64/252/12
f 80/240/12 47/253/12 70/239/12
f 47/111/1 46/110/1 68/254/1
